<svg id="Layer_1" data-name="Layer 1" xmlns="http://www.w3.org/2000/svg" viewBox="0 0 256 256"><defs><style>.cls-1{fill:#effafe;}.cls-2{fill:#fd0;}.cls-3{fill:#40bdff;}.cls-4{fill:#e4ebed;}.cls-5{fill:#efc803;}.cls-6{fill:#2197f7;}.cls-7{fill:#263238;}</style></defs><title>id card job seeker employee unemployee work</title><path class="cls-1" d="M40.95,162.05v2.61h28.1v-2.61a11.76,11.76,0,0,0-11.74-11.74H52.69A11.76,11.76,0,0,0,40.95,162.05Z"/><path class="cls-1" d="M54.18,146.31h1.64a7.18,7.18,0,1,0-1.64,0Z"/><path class="cls-2" d="M70,117H40a8,8,0,0,0-8,8v46.67a8,8,0,0,0,8,8H70a8,8,0,0,0,8-8V125A8,8,0,0,0,70,117ZM43.82,139.18a11.18,11.18,0,1,1,18.91,8.08c7,3,10.32,8.75,10.32,14.8v4.61a2,2,0,0,1-2,2H38.95a2,2,0,0,1-2-2v-4.61c0-6,3.24-11.82,10.32-14.8A11.3,11.3,0,0,1,43.82,139.18Z"/><path class="cls-3" d="M117.34,51.66V88h29.32V51.66a14.66,14.66,0,1,0-29.32,0ZM128,59.22a8.11,8.11,0,1,1,8.11-8.11A8.12,8.12,0,0,1,128,59.22Z"/><path class="cls-4" d="M57.31,150.31h-4a11.76,11.76,0,0,1,11.74,11.74v2.61h4v-2.61A11.76,11.76,0,0,0,57.31,150.31Z"/><path class="cls-4" d="M55,132a7.15,7.15,0,0,0-2,.29,7.17,7.17,0,0,1,0,13.78,7.19,7.19,0,0,0,1.18.24h1.64A7.18,7.18,0,0,0,55,132Z"/><path class="cls-5" d="M70,117H65a8,8,0,0,1,8,8v35.81c0,.41.05.83.05,1.24v4.61a2,2,0,0,1-.05.43v4.57a8,8,0,0,1-8,8h5a8,8,0,0,0,8-8V125A8,8,0,0,0,70,117Z"/><path class="cls-6" d="M132,37a14.59,14.59,0,0,0-4,.57,14.65,14.65,0,0,1,10.65,14.09V88h8V51.66A14.65,14.65,0,0,0,132,37Z"/><path class="cls-1" d="M236,67H146.66V88H156a2,2,0,0,1,0,4H100a2,2,0,0,1,0-4h9.34V67H25a8,8,0,0,0-8,8V211a8,8,0,0,0,8,8H236a8,8,0,0,0,8-8V75A8,8,0,0,0,236,67ZM82,125v46.67a12,12,0,0,1-12,12H40a12,12,0,0,1-12-12V125a12,12,0,0,1,12-12H70A12,12,0,0,1,82,125Z"/><path class="cls-4" d="M236,67h-5a8,8,0,0,1,8,8V211a8,8,0,0,1-8,8h5a8,8,0,0,0,8-8V75A8,8,0,0,0,236,67Z"/><path class="cls-7" d="M63.58,147.07a11.68,11.68,0,1,0-17.16,0,16.27,16.27,0,0,0-10,15v4.61a2.5,2.5,0,0,0,2.5,2.5h32.1a2.5,2.5,0,0,0,2.5-2.5v-4.61A16.27,16.27,0,0,0,63.58,147.07ZM55,132.5a6.68,6.68,0,0,1,.76,13.31H54.24A6.68,6.68,0,0,1,55,132.5Zm13.55,31.67H41.45v-2.11a11.26,11.26,0,0,1,11.24-11.24h4.61a11.26,11.26,0,0,1,11.24,11.24Z"/><path class="cls-7" d="M236,62.5H147.16V51.66a19.16,19.16,0,0,0-38.32,0V62.5H20A12.51,12.51,0,0,0,7.5,75V211A12.51,12.51,0,0,0,20,223.5H236A12.51,12.51,0,0,0,248.5,211V75A12.51,12.51,0,0,0,236,62.5ZM113.84,51.66a14.16,14.16,0,1,1,28.32,0V87.5H113.84ZM243.5,211a7.51,7.51,0,0,1-7.5,7.5H20a7.51,7.51,0,0,1-7.5-7.5V75A7.51,7.51,0,0,1,20,67.5h88.84v20H100a2.5,2.5,0,0,0,0,5h56a2.5,2.5,0,0,0,0-5h-8.84v-20H236a7.51,7.51,0,0,1,7.5,7.5Z"/><path class="cls-7" d="M70,112.5H40A12.51,12.51,0,0,0,27.5,125v46.67A12.51,12.51,0,0,0,40,184.17H70a12.51,12.51,0,0,0,12.5-12.5V125A12.51,12.51,0,0,0,70,112.5Zm7.5,59.17a7.51,7.51,0,0,1-7.5,7.5H40a7.51,7.51,0,0,1-7.5-7.5V125a7.51,7.51,0,0,1,7.5-7.5H70a7.51,7.51,0,0,1,7.5,7.5Z"/><path class="cls-7" d="M226,119.58H100a2.5,2.5,0,0,0,0,5H226a2.5,2.5,0,0,0,0-5Z"/><path class="cls-7" d="M226,141.8H100a2.5,2.5,0,0,0,0,5H226a2.5,2.5,0,0,0,0-5Z"/><path class="cls-7" d="M226,164H100a2.5,2.5,0,0,0,0,5H226a2.5,2.5,0,0,0,0-5Z"/><path class="cls-7" d="M226,186.25H100a2.5,2.5,0,0,0,0,5H226a2.5,2.5,0,0,0,0-5Z"/><path class="cls-7" d="M128,42.5a8.61,8.61,0,1,0,8.61,8.61A8.62,8.62,0,0,0,128,42.5Zm0,12.22a3.61,3.61,0,1,1,3.61-3.61A3.61,3.61,0,0,1,128,54.72Z"/><path class="cls-2" d="M192.33,233.5h-4v-4a1,1,0,0,0-2,0v4h-4a1,1,0,0,0,0,2h4v4a1,1,0,0,0,2,0v-4h4a1,1,0,0,0,0-2Z"/><path class="cls-2" d="M102.5,23h-4V19a1,1,0,0,0-2,0v4h-4a1,1,0,0,0,0,2h4v4a1,1,0,0,0,2,0V25h4a1,1,0,0,0,0-2Z"/><path class="cls-3" d="M191.33,40a6,6,0,1,1,6-6A6,6,0,0,1,191.33,40Zm0-10a4,4,0,1,0,4,4A4,4,0,0,0,191.33,30Z"/><path class="cls-2" d="M20,240.5a6,6,0,1,1,6-6A6,6,0,0,1,20,240.5Zm0-10a4,4,0,1,0,4,4A4,4,0,0,0,20,230.5Z"/><path class="cls-3" d="M114.5,235h-2.59l1.83-1.83a1,1,0,0,0-1.41-1.41l-1.83,1.83V231a1,1,0,0,0-2,0v2.59l-1.83-1.83a1,1,0,0,0-1.41,1.41l1.83,1.83H104.5a1,1,0,0,0,0,2h2.59l-1.83,1.83a1,1,0,0,0,1.41,1.41l1.83-1.83V241a1,1,0,0,0,2,0v-2.59l1.83,1.83a1,1,0,0,0,1.41-1.41L111.91,237h2.59a1,1,0,0,0,0-2Z"/></svg>