<?xml version="1.0" ?><svg id="Layer_1" style="enable-background:new 0 0 64 64;" version="1.1" viewBox="0 0 64 64" xml:space="preserve" xmlns="http://www.w3.org/2000/svg" xmlns:xlink="http://www.w3.org/1999/xlink"><style type="text/css">
	.st0{fill:url(#SVGID_1_);}
	.st1{fill:url(#SVGID_2_);}
	.st2{fill:url(#SVGID_3_);}
	.st3{fill:url(#SVGID_4_);}
	.st4{fill:#FFFFFF;}
	.st5{fill:url(#SVGID_5_);}
	.st6{fill:url(#SVGID_6_);}
	.st7{fill:url(#SVGID_7_);}
	.st8{fill:url(#SVGID_8_);}
	.st9{fill:url(#SVGID_9_);}
	.st10{fill:#FFBF0B;}
	.st11{fill:#1A1A54;}
	.st12{fill:#DC2863;}
	.st13{fill:none;stroke:#1A1A54;stroke-width:3;stroke-linecap:round;stroke-linejoin:round;stroke-miterlimit:10;}
	.st14{fill:#0B85FF;}
	.st15{opacity:0.5;fill:#FFFFFF;}
	.st16{fill:#00AF64;}
	.st17{fill:#00D17C;}
	.st18{fill:none;stroke:#00D17C;stroke-width:3;stroke-linecap:round;stroke-linejoin:round;stroke-miterlimit:10;}
</style><circle class="st10" cx="32" cy="32" r="32"/><circle class="st10" cx="32" cy="32" r="32"/><path class="st14" d="M10,55.2c3.1,3,6.9,5.3,11,6.8V19.7l-11,1V55.2z"/><path class="st14" d="M54.1,55.2c-3.1,3-6.9,5.3-11,6.8V19.7l11,1V55.2z"/><path class="st11" d="M26.8,40c-0.4,0.1-0.8-0.2-0.8-0.6c0-1.6,0-5.2,0-5.2c0-3.7,2.7-6.4,6-6.4h0.1c3.3,0,5.9,2.6,5.9,5.9  c0,2.2,0,4.5,0,5.6c0,0.4-0.4,0.7-0.8,0.6C33.7,39,30.3,39,26.8,40z"/><path class="st12" d="M32,34.9c-2.2,0-4.2,1.1-6,3.2c0,0.5,0,1,0,1.4c0,0.4,0.4,0.7,0.8,0.6c3.5-1,7-1,10.4,0  c0.4,0.1,0.8-0.2,0.8-0.6c0-0.4,0-0.8,0-1.4C36.2,36.1,34.2,34.9,32,34.9z"/><g><path class="st11" d="M9.3,20.6c1-1.3,2.3-2.1,3.7-2.7c1.4-0.6,3-0.8,4.5-0.8c1.5,0.1,3,0.4,4.4,1c0.7,0.3,1.3,0.7,1.9,1.1   c0.6,0.4,1.1,0.9,1.6,1.5c0.3,0.4,0.3,1-0.1,1.3c-0.2,0.1-0.4,0.2-0.6,0.2l-0.1,0c-0.7,0-1.4-0.1-2-0.1c-0.6,0-1.2-0.1-1.8-0.2   c-1.2-0.1-2.3-0.1-3.5-0.2c-1.1,0-2.2,0.1-3.4,0.2c-1.1,0.1-2.4,0.3-3.6,0.4l-0.3,0c-0.6,0.1-1.1-0.4-1.2-1   C9,21.1,9.1,20.9,9.3,20.6z"/></g><g><path class="st11" d="M53.5,22.4c-1.2-0.1-2.4-0.3-3.6-0.4c-1.1-0.1-2.3-0.2-3.4-0.2c-1.1,0-2.3,0-3.5,0.2c-0.6,0-1.2,0.1-1.8,0.2   c-0.6,0-1.3,0.2-2,0.1l-0.1,0c-0.5,0-0.9-0.4-0.9-0.9c0-0.2,0.1-0.4,0.2-0.6c0.5-0.6,1-1.1,1.6-1.5c0.6-0.4,1.2-0.8,1.9-1.1   c1.4-0.6,2.9-0.9,4.4-1c1.5,0,3.1,0.2,4.5,0.8c1.4,0.6,2.7,1.4,3.7,2.7c0.4,0.5,0.3,1.2-0.2,1.5c-0.2,0.2-0.5,0.2-0.8,0.2   L53.5,22.4z"/></g></svg>