<svg id="Layer_1" data-name="Layer 1" xmlns="http://www.w3.org/2000/svg" xmlns:xlink="http://www.w3.org/1999/xlink" viewBox="0 0 500 500"><defs><style>.cls-1{fill:none;}.cls-2{fill:#dddcdc;}.cls-3{fill:#828084;}.cls-4{fill:#a5a4a4;}.cls-5{fill:#f9ba3c;}.cls-6{fill:#9f5c26;}.cls-7{fill:#ffd78a;}.cls-8{fill:#d99135;}.cls-9{fill:#b06928;}.cls-10{clip-path:url(#clip-path);}.cls-11{fill:#e9a231;}.cls-12{fill:#e1332e;}.cls-13{fill:#88181a;}.cls-14{clip-path:url(#clip-path-2);}.cls-15{fill:#be2627;}.cls-16{fill:#f27173;}.cls-17{clip-path:url(#clip-path-3);}.cls-18{clip-path:url(#clip-path-4);}.cls-19{fill:#7c50a1;}.cls-20{fill:#472c76;}.cls-21{fill:#623391;}.cls-22{fill:#9371b2;}.cls-23{fill:#ffd43e;}.cls-24{fill:#b87c2b;}.cls-25{clip-path:url(#clip-path-5);}.cls-26{fill:#fceba5;}.cls-27{fill:#e3a13e;}.cls-28{clip-path:url(#clip-path-7);}.cls-29{fill:#fff;}</style><clipPath id="clip-path"><ellipse class="cls-1" cx="238.48" cy="194.59" rx="162.31" ry="115.11" transform="translate(-56.08 105.3) rotate(-22.35)"/></clipPath><clipPath id="clip-path-2"><path class="cls-1" d="M194.54,175.75c5.28,6,20.93,8.57,30.31-6.68s10.5-30-14.15-35.5-27.34,1.37-28.85,12C180.24,157,187.07,167.33,194.54,175.75Z"/></clipPath><clipPath id="clip-path-3"><path class="cls-1" d="M268.6,127.71c-7.13,3.55-13.73,18-1.45,31s26.24,18,38-4.4,5.81-26.75-4.1-31C290.47,118.82,278.68,122.7,268.6,127.71Z"/></clipPath><clipPath id="clip-path-4"><path class="cls-1" d="M219.12,147c1.12,8.62,13.66,20.57,31.49,12.53s27.87-20.69,8.95-40.75S234,103.23,226.12,112C217.71,121.22,217.52,134.77,219.12,147Z"/></clipPath><clipPath id="clip-path-5"><path class="cls-1" d="M216.12,228.76c-4.18-3.49-18.28-11.26-26.46-12.8s-13.64,5.46-19.39,14.3-11.74,17.09-9.72,23.85,14.37,11.28,25.34,14.29c12.75,3.49,16.25,4.5,20.34-1.62S223.36,234.8,216.12,228.76Z"/></clipPath><clipPath id="clip-path-7"><path class="cls-1" d="M221.81,228.37c5.34-1,21.44-.9,29.34,1.75s9.23,11.43,9.93,21.95,1.89,20.65-3.17,25.56-18,2.83-29.08.09c-12.84-3.18-16.38-4-17-11.34S212.53,230.11,221.81,228.37Z"/></clipPath></defs><title>Waffles</title><ellipse class="cls-2" cx="249.19" cy="288.56" rx="219.54" ry="143.65"/><path class="cls-3" d="M249.19,144.92c121.24,0,219.53,64.31,219.53,143.64S370.43,432.21,249.19,432.21,29.65,367.9,29.65,288.56s98.29-143.64,219.54-143.64m0-5.47c-124.07,0-225,66.89-225,149.11s100.93,149.11,225,149.11,225-66.89,225-149.11-100.94-149.11-225-149.11Z"/><ellipse class="cls-4" cx="249.19" cy="281.1" rx="173.46" ry="110.45"/><ellipse class="cls-5" cx="251.13" cy="256.03" rx="162.31" ry="115.11" transform="translate(-38.73 44.85) rotate(-9.48)"/><path class="cls-6" d="M269.51,139.36c72.64,0,132.75,36.22,141.72,89.94C421.7,292,358.5,354.81,270.08,369.57a227.42,227.42,0,0,1-37.33,3.13C160.11,372.7,100,336.47,91,282.75c-10.47-62.7,52.73-125.5,141.15-140.26a226.33,226.33,0,0,1,37.33-3.13m0-5.42h0a233.62,233.62,0,0,0-38.23,3.2c-91.22,15.23-156.54,81-145.6,146.51,9.29,55.62,69.77,94.47,147.07,94.47A232.54,232.54,0,0,0,271,374.91c91.22-15.23,156.54-81,145.59-146.5-9.28-55.62-69.76-94.47-147.06-94.47Z"/><path class="cls-7" d="M395.78,236.8c.59-11.83-14.9-7.11-21.5-1.39-9.65,8.35-5.81,25.42,2.88,27.4S395.19,248.63,395.78,236.8Z"/><path class="cls-7" d="M360.36,271.65c-10.28,1.87-15.34,14.79-14.19,22.09s12.3,7.74,20.56-3.75S368.58,270.15,360.36,271.65Z"/><path class="cls-7" d="M339.68,245.1c-14.69,5.79-14.62,17.77-8.18,23.47s17.38-5.18,21.83-15.43S347.16,242.15,339.68,245.1Z"/><path class="cls-7" d="M329.77,297.74c-4.28-5.91-6.54-2.2-13.82,8.1s5.85,17.53,14.89,11.85S333.73,303.21,329.77,297.74Z"/><path class="cls-7" d="M313,272.78c-10.8,1.05-12.06,12.73-8.78,20s13.19.76,16.67-8.3S321.17,272,313,272.78Z"/><path class="cls-7" d="M267.71,327.35c-12-14.55-31-4.3-30.77,6.88s7.65,12.17,22.22,9.24S271.67,332.18,267.71,327.35Z"/><path class="cls-7" d="M221.13,324.36c-10.33-6.53-18.71-6.36-25.29,1.17s-.17,16,16.29,16.93S227.3,328.26,221.13,324.36Z"/><path class="cls-7" d="M218.89,299.17c-.27-9.45-18.3-6.61-26.81,3.26s7.71,12.61,15.52,11.19C212.67,312.69,219.16,308.62,218.89,299.17Z"/><path class="cls-7" d="M160.06,311.79c-15.54,4.1-16.84,12.83-6.87,17.89s20.95,11.74,26.1-1.68S166.64,310.05,160.06,311.79Z"/><path class="cls-7" d="M125.51,255.13c-10.46,3.17-9.7,8-7.83,19.06,3.55,21,25.27,14.11,26,1.77S136,252,125.51,255.13Z"/><path class="cls-7" d="M148,229.68c10.08-13.68.15-25-9.55-25.11S117,225,117.64,231.78C119.3,248.84,137.93,243.37,148,229.68Z"/><path class="cls-7" d="M186.63,173.18c-6.36-5.63-23.49,5.66-31.25,15.1-10.59,12.87,12.74,20.29,21.67,14.68S193,178.8,186.63,173.18Z"/><path class="cls-7" d="M191.94,207.75c-9,3.41-17.36,3-12.21,13.89s7,14.82,17.74,7.53S212.49,199.94,191.94,207.75Z"/><path class="cls-7" d="M172.86,239.54c-6.85,2.23-15.23,2.77-9.72,15.15s19.63,11.44,23.06,2.49S184.13,235.85,172.86,239.54Z"/><path class="cls-7" d="M306.43,154.33c-13.72-3.83-12.14,2.26-15.26,9-5.51,11.94,25.83,17.72,38.46,8.09S320.15,158.16,306.43,154.33Z"/><path class="cls-7" d="M360.32,177.07c-7.93-1.81-19.95.07-18.27,7,2.87,11.77,21.16,13.87,30.74,8.41S368.24,178.88,360.32,177.07Z"/><path class="cls-7" d="M245.83,148.83c-12.59,3.37-8.31,15.29-3.41,18,8.64,4.76,31.89.34,34.1-12.36S258.42,145.45,245.83,148.83Z"/><path class="cls-8" d="M391.69,236.48c.58-11.68-14.71-7-21.24-1.37-9.53,8.25-5.73,25.1,2.86,27.06S391.1,248.17,391.69,236.48Z"/><path class="cls-8" d="M356.72,270.89c-10.16,1.85-15.16,14.61-14,21.82s12.15,7.64,20.3-3.7S364.83,269.41,356.72,270.89Z"/><path class="cls-8" d="M336.3,244.68c-14.52,5.72-14.44,17.55-8.08,23.17s17.15-5.11,21.55-15.23S343.67,241.77,336.3,244.68Z"/><path class="cls-8" d="M326.5,296.65c-4.22-5.83-6.45-2.17-13.64,8s5.77,17.3,14.7,11.7S330.42,302.06,326.5,296.65Z"/><path class="cls-8" d="M309.89,272c-10.66,1-11.9,12.57-8.66,19.7s13,.76,16.46-8.19S318,271.22,309.89,272Z"/><path class="cls-8" d="M268.87,323.8c4,4.82,6,13.19-8.55,16.11s-22,1.93-22.22-9.24S256.9,309.25,268.87,323.8Z"/><path class="cls-8" d="M222.29,320.8c6.17,3.9,7.45,19.08-9,18.1S190.41,329.5,197,322,212,314.27,222.29,320.8Z"/><path class="cls-8" d="M161.22,308.23c6.58-1.73,24.38,2.79,19.23,16.21s-16.14,6.74-26.1,1.68S145.68,312.33,161.22,308.23Z"/><path class="cls-8" d="M208.76,310.06c-7.81,1.42-24-1.32-15.52-11.19s26.54-12.7,26.81-3.26S213.83,309.14,208.76,310.06Z"/><path class="cls-8" d="M128.6,256.3c-10.45,3.17-9.7,8-7.83,19.06,3.55,21,25.27,14.11,26,1.77S139.06,253.13,128.6,256.3Z"/><path class="cls-8" d="M151.1,230.85c10.07-13.68.15-25-9.56-25.11S120.07,226.21,120.73,233C122.39,250,141,244.54,151.1,230.85Z"/><path class="cls-8" d="M189.73,174.35c-6.37-5.63-23.5,5.66-31.26,15.1-10.58,12.87,12.74,20.29,21.67,14.68S196.09,180,189.73,174.35Z"/><path class="cls-8" d="M195,208.92c-9,3.41-17.36,3-12.21,13.89s7,14.82,17.74,7.53S215.58,201.11,195,208.92Z"/><path class="cls-8" d="M176,240.71c-6.84,2.23-15.23,2.77-9.72,15.15s19.63,11.44,23.07,2.49S187.22,237,176,240.71Z"/><path class="cls-8" d="M241.57,169.51c-4.9-2.69-9.17-14.6,3.41-18s32.9-7.08,30.69,5.62S250.21,174.27,241.57,169.51Z"/><path class="cls-9" d="M391.69,236.48c.48-9.61-9.79-8.15-17.08-4.18,6.09-1.8,12.07-1,11.7,6.43-.42,8.42-5.33,19-11.25,23.59C383.1,262,391.14,247.37,391.69,236.48Z"/><path class="cls-9" d="M338.41,244c5.58-.32,10.2,2.05,7,9.36-2.91,6.69-8.61,13.62-14,15.94,6.32.83,14.6-8.13,18.32-16.69C353.76,243.44,345.49,242,338.41,244Z"/><path class="cls-9" d="M309.89,272a11.53,11.53,0,0,0-4.46,1.39c.25,0,.44-.14.71-.17,8.12-.79,11.23,2.57,7.79,11.52a20.35,20.35,0,0,1-8.14,10c4.17-.17,9.54-5.11,11.9-11.26C321.12,274.57,318,271.22,309.89,272Z"/><path class="cls-9" d="M356.72,270.89c-.29.06-.54.2-.82.27,6.77.47,11.05,8.11,3.77,18.25-3.45,4.8-7.39,7.38-10.91,8.34,4.14.22,9.63-2.32,14.24-8.74C371.16,277.67,364.83,269.41,356.72,270.89Z"/><path class="cls-9" d="M326.5,296.65c-1.73-2.39-3.14-3.1-4.68-2.51a10.7,10.7,0,0,1,1.6,1.81c3.92,5.4,10,14.1,1.06,19.7a12.82,12.82,0,0,1-8.09,1.88,12.77,12.77,0,0,0,11.17-1.17C336.49,310.75,330.42,302.06,326.5,296.65Z"/><path class="cls-9" d="M271,327.24c-.38,3.43-3.34,6.72-11.4,8.33-12.15,2.44-19.25,2.06-21.43-4.58.38,10.84,7.76,11.82,22.18,8.92C271.82,337.61,273,331.91,271,327.24Z"/><path class="cls-9" d="M214.78,335.42c-13-.78-19.63-6.21-18.61-12.18-4.86,7.18,1.58,14.73,17.12,15.66,8.44.5,12.2-3.26,13-7.56C224.42,334,220.8,335.77,214.78,335.42Z"/><path class="cls-9" d="M197.48,299.61c4.91-5.7,13-9,19-9-5.74-2.35-17,1.08-23.23,8.29s1,10.72,8.39,11.4C196.14,308.83,192.4,305.5,197.48,299.61Z"/><path class="cls-8" d="M161.22,308.23c6.58-1.73,24.38,2.79,19.23,16.21s-16.14,6.74-26.1,1.68S145.68,312.33,161.22,308.23Z"/><path class="cls-9" d="M159.12,326.52c-10-5.06-8.66-13.8,6.87-17.89a12.24,12.24,0,0,1,2.53-.33,17.76,17.76,0,0,0-7.3-.07c-15.54,4.1-16.84,12.84-6.87,17.89,6.06,3.08,12.48,6.73,17.76,6.12C168,331.21,163.44,328.71,159.12,326.52Z"/><path class="cls-9" d="M124.51,276.21c-1.86-11-2.62-15.89,7.83-19.06a11.89,11.89,0,0,1,4-.5,11.26,11.26,0,0,0-7.73-.35c-10.45,3.17-9.7,8-7.83,19.06,1.58,9.36,6.79,13.15,12.13,13.41C129,287.19,125.72,283.34,124.51,276.21Z"/><path class="cls-9" d="M169.08,255.58c-5.51-12.38,2.87-12.92,9.72-15.15a13.17,13.17,0,0,1,1.44-.36,12.12,12.12,0,0,0-4.29.64c-6.84,2.23-15.23,2.77-9.72,15.15,3.38,7.58,10,10.14,15.36,9C176.88,264.7,171.87,261.87,169.08,255.58Z"/><path class="cls-9" d="M123.9,235.3c-.66-6.75,11.12-27.35,20.82-27.22a14,14,0,0,1,6.47,1.78,14.28,14.28,0,0,0-9.65-4.12c-9.7-.14-21.47,20.47-20.81,27.21.53,5.45,2.8,8.58,6,9.9A13.47,13.47,0,0,1,123.9,235.3Z"/><path class="cls-9" d="M186.34,223.62c-5.15-10.91,3.26-10.49,12.21-13.89a20.48,20.48,0,0,1,7.81-1.59c-2.31-1.24-6-1.26-11.33.78-9,3.41-17.36,3-12.21,13.89,3.54,7.49,5.6,11.57,10,11.1C190.52,232.33,188.79,228.8,186.34,223.62Z"/><path class="cls-9" d="M161.67,190.64c6.6-8,20-17.34,27.72-16.51-6.59-5-23.28,6-30.92,15.32-6.28,7.64-.6,13.32,6.9,15.54C159.64,202.25,156.33,197.14,161.67,190.64Z"/><path class="cls-8" d="M305.58,157c-13.72-3.84-12.14,2.25-15.26,9-5.51,11.94,25.83,17.72,38.46,8.09S319.31,160.87,305.58,157Z"/><path class="cls-8" d="M359.47,179.77c-7.93-1.81-20,.08-18.27,6.95,2.87,11.78,21.16,13.87,30.74,8.42S367.39,181.59,359.47,179.77Z"/><path class="cls-8" d="M245,151.53c-12.58,3.38-8.31,15.29-3.41,18,8.64,4.76,31.89.34,34.1-12.36S257.57,148.15,245,151.53Z"/><path class="cls-9" d="M243.35,154.63c12.59-3.38,32.89-7.08,30.69,5.62a11.73,11.73,0,0,1-.51,1.78,11.65,11.65,0,0,0,2.14-4.88c2.21-12.7-18.1-9-30.69-5.62-4.88,1.31-7.2,3.9-8,6.74A12.07,12.07,0,0,1,243.35,154.63Z"/><path class="cls-9" d="M305.58,157c-7.17-2-10.15-1.29-11.82.82,1.91-.69,4.81-.58,9.61.75,13.41,3.75,34.72,7.34,23.92,16.49.5-.31,1-.6,1.49-.95C341.41,164.53,319.31,160.87,305.58,157Z"/><path class="cls-9" d="M359.47,179.77c-5.09-1.16-11.85-.79-15.6,1.44a27.36,27.36,0,0,1,12.28-.11c7.93,1.81,22.07,9.91,12.48,15.36-.32.18-.71.29-1.05.45a20.5,20.5,0,0,0,4.36-1.77C381.53,189.68,367.39,181.59,359.47,179.77Z"/><path class="cls-7" d="M98.69,235.1s-14.5,41.17,13.49,70.73l92-33.65S122.32,298,114.44,298,90.78,271.75,98.69,235.1Z"/><path class="cls-7" d="M288.41,333.59s9.3,10-23,17.45c-30.53,7-93.19,8.36-136.6-24.73,0,0,29,19.14,71.39,24.2S285.63,347.78,288.41,333.59Z"/><path class="cls-7" d="M400.86,210.55S416.22,222.4,403,256s-59.32,79.12-96.06,77.67c0,0,35.1-3.56,67.26-38.84S413.45,226.4,400.86,210.55Z"/><ellipse class="cls-5" cx="247.52" cy="230.73" rx="162.31" ry="115.11" transform="translate(-48.06 66.01) rotate(-13.86)"/><path class="cls-6" d="M273.27,112.37c65.34,0,119.78,30.63,131.83,79.48,15.23,61.73-43,129.17-130,150.64a222.9,222.9,0,0,1-53.32,6.6c-65.35,0-119.79-30.62-131.84-79.48-15.23-61.72,43-129.16,130-150.64a223.43,223.43,0,0,1,53.33-6.6m0-5.42v0h0a228.54,228.54,0,0,0-54.62,6.76c-89.8,22.15-149.9,92.67-134,157.2,12.34,50,67.44,83.6,137.11,83.6a228.15,228.15,0,0,0,54.62-6.76c89.79-22.15,149.9-92.67,134-157.2C398,140.55,342.94,107,273.28,107Z"/><path class="cls-7" d="M390.27,200.51c-.31-11.84-15.39-5.95-21.54.25-9,9.07-3.85,25.79,5,27.11S390.59,212.35,390.27,200.51Z"/><path class="cls-7" d="M357.62,238c-10.1,2.65-14.17,15.92-12.47,23.11s12.87,6.78,20.22-5.3S365.7,235.84,357.62,238Z"/><path class="cls-7" d="M335,213.07c-14.22,6.9-13.22,18.84-6.37,24s16.93-6.5,20.59-17S342.2,209.56,335,213.07Z"/><path class="cls-7" d="M329.11,266.31c-4.72-5.56-6.69-1.69-13.16,9.14s7.17,17,15.75,10.67S333.48,271.46,329.11,266.31Z"/><path class="cls-7" d="M310.43,242.71c-10.69,1.87-11.05,13.61-7.22,20.57s13.21-.25,16-9.55S318.57,241.28,310.43,242.71Z"/><path class="cls-7" d="M269.49,300.58c-13-13.59-31.22-1.92-30.14,9.2s8.55,11.56,22.85,7.53S273.82,305.09,269.49,300.58Z"/><path class="cls-7" d="M222.82,301.15c-10.79-5.72-19.13-4.91-25.12,3.1s1.05,15.92,17.53,15.64S229.27,304.57,222.82,301.15Z"/><path class="cls-7" d="M218.67,276.21c-1-9.4-18.75-5.2-26.48,5.3s8.65,12,16.32,10C213.5,290.17,219.66,285.61,218.67,276.21Z"/><path class="cls-7" d="M161,293.29c-15.18,5.27-15.81,14.08-5.48,18.36s21.78,10.11,25.89-3.67S167.4,291.05,161,293.29Z"/><path class="cls-7" d="M122.19,239.43c-10.18,4-9,8.76-6.35,19.6,5.14,20.64,26.28,12.15,26.07-.21S132.38,235.47,122.19,239.43Z"/><path class="cls-7" d="M142.68,212.34c9-14.41-1.76-24.92-11.44-24.31s-19.85,22.05-18.68,28.72C115.52,233.64,133.68,226.76,142.68,212.34Z"/><path class="cls-7" d="M176.88,153.05c-6.77-5.12-23,7.44-30,17.44-9.57,13.65,14.25,19.26,22.73,13S183.65,158.17,176.88,153.05Z"/><path class="cls-7" d="M184.81,187.12c-8.67,4.08-17.08,4.3-11.11,14.78s8.15,14.24,18.26,6.15S204.7,177.76,184.81,187.12Z"/><path class="cls-7" d="M168.21,220.27c-6.65,2.75-15,3.93-8.53,15.85s20.45,9.9,23.19.72S179.17,215.74,168.21,220.27Z"/><path class="cls-7" d="M294.89,125.11c-14-2.77-11.94,3.17-14.53,10.16-4.59,12.33,27.11,15.7,39,5.13S308.86,127.88,294.89,125.11Z"/><path class="cls-7" d="M350.35,143.66c-8-1.2-19.88,1.6-17.68,8.33,3.76,11.52,22.15,12.21,31.29,6S358.39,144.87,350.35,143.66Z"/><path class="cls-7" d="M234,124.25c-12.29,4.33-7.11,15.88-2,18.19,9,4.08,31.83-2.1,33.06-14.93S246.34,119.92,234,124.25Z"/><path class="cls-8" d="M386.17,200.51c-.31-11.7-15.21-5.88-21.28.25-8.87,9-3.8,25.46,4.91,26.76S386.48,212.2,386.17,200.51Z"/><path class="cls-8" d="M353.93,237.49c-10,2.62-14,15.72-12.31,22.82s12.7,6.69,20-5.24S361.9,235.39,353.93,237.49Z"/><path class="cls-8" d="M331.57,212.91c-14,6.81-13.06,18.6-6.29,23.72s16.72-6.41,20.33-16.83S338.7,209.45,331.57,212.91Z"/><path class="cls-8" d="M325.77,265.48c-4.66-5.49-6.6-1.67-13,9s7.08,16.82,15.55,10.55S330.09,270.57,325.77,265.48Z"/><path class="cls-8" d="M307.33,242.18c-10.55,1.85-10.91,13.44-7.13,20.3s13-.24,15.78-9.42S315.37,240.77,307.33,242.18Z"/><path class="cls-8" d="M270.38,297c4.32,4.51,7,12.69-7.29,16.72s-21.78,3.6-22.86-7.52S257.34,283.35,270.38,297Z"/><path class="cls-8" d="M223.71,297.52c6.45,3.41,8.89,18.45-7.59,18.73s-23.53-7.62-17.54-15.63S212.92,291.79,223.71,297.52Z"/><path class="cls-8" d="M161.85,289.65c6.44-2.23,24.53.92,20.42,14.7s-15.58,7.95-25.9,3.67S146.68,294.92,161.85,289.65Z"/><path class="cls-8" d="M209.39,287.84c-7.67,2-24,.52-16.32-10s25.49-14.69,26.48-5.29S214.39,286.53,209.39,287.84Z"/><path class="cls-8" d="M125.37,240.36c-10.19,4-9.06,8.76-6.36,19.6,5.14,20.64,26.28,12.15,26.07-.21S135.55,236.4,125.37,240.36Z"/><path class="cls-8" d="M145.85,213.27c9-14.41-1.76-24.92-11.44-24.31s-19.85,22-18.68,28.72C118.69,234.57,136.85,227.69,145.85,213.27Z"/><path class="cls-8" d="M180.05,154c-6.77-5.12-23,7.45-30,17.44-9.57,13.65,14.26,19.26,22.73,13S186.82,159.1,180.05,154Z"/><path class="cls-8" d="M188,188.05c-8.67,4.08-17.08,4.3-11.11,14.78S185,217.07,195.13,209,207.88,178.69,188,188.05Z"/><path class="cls-8" d="M171.39,221.2c-6.66,2.75-15,3.93-8.54,15.85s20.45,9.9,23.19.72S182.34,216.67,171.39,221.2Z"/><path class="cls-8" d="M231.37,145.2c-5.08-2.31-10.26-13.86,2-18.19s32.26-9.58,31,3.26S240.36,149.28,231.37,145.2Z"/><path class="cls-9" d="M386.17,200.51c-.26-9.63-10.38-7.38-17.35-2.88,5.94-2.25,12-1.86,12.16,5.53.22,8.42-3.86,19.38-9.41,24.37C379.56,226.57,386.46,211.41,386.17,200.51Z"/><path class="cls-9" d="M333.62,212.08c5.54-.75,10.33,1.26,7.72,8.8-2.39,6.89-7.55,14.23-12.72,17,6.36.34,13.94-9.23,17-18C348.89,210.34,340.53,209.56,333.62,212.08Z"/><path class="cls-9" d="M307.33,242.18a11.47,11.47,0,0,0-4.35,1.73c.25-.06.44-.18.7-.22,8-1.41,11.39,1.7,8.65,10.88A20.38,20.38,0,0,1,305,265.19c4.15-.48,9.12-5.82,11-12.13C318.72,243.88,315.37,240.77,307.33,242.18Z"/><path class="cls-9" d="M353.93,237.49a7.92,7.92,0,0,0-.8.33c6.79,0,11.64,7.24,5.16,17.9-3.08,5-6.81,7.93-10.24,9.16,4.15-.1,9.42-3.06,13.53-9.81C368.84,243.14,361.9,235.39,353.93,237.49Z"/><path class="cls-9" d="M325.77,265.48c-1.91-2.25-3.37-2.86-4.86-2.15a11.57,11.57,0,0,1,1.74,1.68c4.31,5.09,11,13.3,2.56,19.57a12.86,12.86,0,0,1-7.92,2.49,12.76,12.76,0,0,0,11-2C336.81,278.77,330.09,270.57,325.77,265.48Z"/><path class="cls-9" d="M272.74,300.22c-.11,3.45-2.81,6.95-10.73,9.18-11.93,3.36-19,3.52-21.72-2.94,1.21,10.78,8.65,11.2,22.8,7.21C274.38,310.49,275.07,304.73,272.74,300.22Z"/><path class="cls-9" d="M217.34,312.66c-13,.23-20.05-4.69-19.49-10.71-4.3,7.53,2.7,14.56,18.27,14.3,8.46-.14,11.91-4.18,12.41-8.53C226.84,310.48,223.36,312.56,217.34,312.66Z"/><path class="cls-9" d="M197.35,278.28c4.46-6.06,12.26-10,18.25-10.45-5.9-1.9-16.88,2.37-22.53,10s1.82,10.62,9.24,10.73C196.72,287.58,192.73,284.54,197.35,278.28Z"/><path class="cls-8" d="M161.85,289.65c6.44-2.23,24.53.92,20.42,14.7s-15.58,7.95-25.9,3.67S146.68,294.92,161.85,289.65Z"/><path class="cls-9" d="M161.16,308.05c-10.32-4.28-9.69-13.1,5.48-18.37a12.47,12.47,0,0,1,2.5-.52,18,18,0,0,0-7.29.49c-15.17,5.27-15.8,14.09-5.48,18.37,6.28,2.6,13,5.75,18.18,4.74C170.33,312.05,165.64,309.9,161.16,308.05Z"/><path class="cls-9" d="M122.81,260.53c-2.7-10.84-3.83-15.64,6.35-19.6a11.8,11.8,0,0,1,3.94-.81,11.22,11.22,0,0,0-7.73.24c-10.19,4-9.06,8.76-6.36,19.6,2.3,9.21,7.78,12.6,13.12,12.45C128.16,271.13,124.56,267.54,122.81,260.53Z"/><path class="cls-9" d="M165.67,236.56c-6.44-11.93,1.88-13.1,8.53-15.86a12.16,12.16,0,0,1,1.41-.46,12.17,12.17,0,0,0-4.22,1c-6.66,2.75-15,3.93-8.54,15.85,4,7.3,10.71,9.35,16,7.76C174.15,245.05,168.94,242.61,165.67,236.56Z"/><path class="cls-9" d="M119.07,219.78c-1.17-6.67,9-28.11,18.68-28.72a13.78,13.78,0,0,1,6.59,1.28,14.29,14.29,0,0,0-9.93-3.38c-9.68.61-19.85,22-18.68,28.72,1,5.4,3.45,8.34,6.7,9.42A13.49,13.49,0,0,1,119.07,219.78Z"/><path class="cls-9" d="M180.44,203.37c-6-10.49,2.45-10.71,11.12-14.79a20.23,20.23,0,0,1,7.66-2.17c-2.39-1.06-6-.81-11.24,1.64-8.67,4.08-17.08,4.3-11.11,14.78,4.1,7.2,6.46,11.11,10.78,10.3C185.27,211.74,183.28,208.35,180.44,203.37Z"/><path class="cls-9" d="M153.33,172.37c6-8.5,18.57-18.82,26.37-18.58-6.95-4.5-22.75,7.79-29.66,17.63-5.68,8.1.42,13.34,8.07,15C152.18,184.1,148.49,179.26,153.33,172.37Z"/><path class="cls-8" d="M294.25,127.87c-14-2.77-11.94,3.17-14.54,10.16-4.58,12.33,27.12,15.69,39,5.13S308.22,130.64,294.25,127.87Z"/><path class="cls-8" d="M349.71,146.42c-8-1.2-19.88,1.6-17.68,8.33,3.76,11.52,22.15,12.21,31.29,6S357.75,147.62,349.71,146.42Z"/><path class="cls-8" d="M233.4,127c-12.29,4.33-7.11,15.88-2,18.19,9,4.08,31.83-2.1,33.06-14.93S245.7,122.68,233.4,127Z"/><path class="cls-9" d="M232,130.22c12.29-4.33,32.26-9.57,31,3.26a10.87,10.87,0,0,1-.37,1.82,11.71,11.71,0,0,0,1.76-5c1.23-12.84-18.73-7.59-31-3.26-4.76,1.67-6.88,4.44-7.42,7.33A12.18,12.18,0,0,1,232,130.22Z"/><path class="cls-9" d="M294.25,127.87c-7.31-1.45-10.23-.5-11.73,1.72,1.85-.83,4.76-1,9.64,0,13.66,2.71,35.18,4.67,25.11,14.61a16.74,16.74,0,0,0,1.41-1.06C330.54,132.6,308.22,130.64,294.25,127.87Z"/><path class="cls-9" d="M349.71,146.42c-5.16-.77-11.87.12-15.44,2.62a27.49,27.49,0,0,1,12.24-1c8,1.2,22.75,8.19,13.61,14.36-.3.21-.69.34-1,.53a20.43,20.43,0,0,0,4.21-2.1C372.47,154.62,357.75,147.62,349.71,146.42Z"/><path class="cls-7" d="M93.93,221.51S82.61,263.66,112.78,291L202,250.42s-79.67,32-87.53,32.61S88.84,258.66,93.93,221.51Z"/><path class="cls-7" d="M290.61,305.22s10,9.26-21.59,19.16c-29.89,9.35-92.28,15.45-138.09-14.22,0,0,30.37,16.86,73,18.66S288.92,319.58,290.61,305.22Z"/><path class="cls-7" d="M393.33,173.94s16.22,10.65,5.59,45.14-53.1,83.42-89.84,84.79c0,0,34.73-6.24,64.1-43.87S407.1,188.79,393.33,173.94Z"/><ellipse class="cls-5" cx="238.48" cy="194.59" rx="162.31" ry="115.11" transform="translate(-56.08 105.3) rotate(-22.35)"/><path class="cls-6" d="M275.77,71.51c52.38,0,96.65,22,112.83,61.36,24.18,58.8-23.44,134.1-106.35,168.18-27.39,11.26-55.21,16.62-81.06,16.62-52.38,0-96.64-22-112.83-61.36-24.17-58.8,23.44-134.1,106.35-168.18,27.39-11.26,55.22-16.62,81.06-16.62m0-5.42h0c-27.29,0-56,5.89-83.12,17C107.11,118.28,58.08,196.9,83.35,258.37c16.41,39.92,61.56,64.72,117.84,64.72,27.29,0,56-5.89,83.12-17,85.54-35.17,134.58-113.79,109.31-175.26C377.2,90.89,332.05,66.09,275.78,66.09Z"/><path class="cls-7" d="M375.21,143.62c-2.06-11.66-16.11-3.61-21.27,3.43-7.55,10.3,0,26.08,8.92,26.08S377.27,155.29,375.21,143.62Z"/><path class="cls-7" d="M348.45,185.48c-9.61,4.12-11.66,17.84-8.92,24.7S353.25,215,358.74,202,356.12,182.19,348.45,185.48Z"/><path class="cls-7" d="M322.37,164.21c-13,8.92-10.29,20.58-2.74,24.7S335.41,180,337.47,169,329,159.67,322.37,164.21Z"/><path class="cls-7" d="M324.43,217.73c-5.49-4.8-6.86-.68-11.66,11s9.6,15.78,17.15,8.23S329.52,222.18,324.43,217.73Z"/><path class="cls-7" d="M302.48,197.15c-10.3,3.43-8.93,15.09-4.11,21.4s13-2.19,14.4-11.8S310.31,194.53,302.48,197.15Z"/><path class="cls-7" d="M270.53,260.43c-14.91-11.52-31.17,2.71-28.46,13.55s10.17,10.17,23.72,4.07S275.47,264.25,270.53,260.43Z"/><path class="cls-7" d="M224.46,267.88c-11.52-4.06-19.65-2-24.4,6.78s3.39,15.58,19.65,12.87S231.34,270.31,224.46,267.88Z"/><path class="cls-7" d="M216.66,243.83c-2.37-9.15-19.31-2.37-25.41,9.15s10.33,10.57,17.62,7.45C213.61,258.4,219,253,216.66,243.83Z"/><path class="cls-7" d="M162.12,269.24c-14.23,7.45-13.55,16.26-2.71,19s23,6.78,25.07-7.45S168.15,266.08,162.12,269.24Z"/><path class="cls-7" d="M115.82,221.7c-9.49,5.42-7.66,10-3.39,20.32,8.13,19.65,27.78,8.13,25.75-4.06S125.3,216.27,115.82,221.7Z"/><path class="cls-7" d="M132.08,191.88c6.77-15.58-5.42-24.39-14.91-22.36s-16.37,24.74-14.23,31.17C108.36,217,125.3,207.47,132.08,191.88Z"/><path class="cls-7" d="M157.15,128.19c-7.45-4.07-21.64,10.76-27.1,21.68-7.46,14.91,16.94,16.94,24.39,9.49S164.6,132.25,157.15,128.19Z"/><path class="cls-7" d="M170,160.71c-8,5.32-16.26,6.78-8.81,16.27s10.17,12.87,19,3.38S188.32,148.52,170,160.71Z"/><path class="cls-7" d="M158.5,196c-6.17,3.7-14.23,6.1-6.09,16.94s21.68,6.77,23-2.71S168.67,189.85,158.5,196Z"/><path class="cls-7" d="M269.74,83.13c-14.23-.68-11.34,4.9-12.87,12.2-2.71,12.87,29.13,11.52,39.3-.68S284,83.81,269.74,83.13Z"/><path class="cls-7" d="M327.34,93.29c-8.14,0-19.43,4.52-16.27,10.84,5.42,10.85,23.72,8.81,31.85,1.36S335.47,93.29,327.34,93.29Z"/><path class="cls-7" d="M209.44,91.26c-11.52,6.1-4.7,16.76.67,18.3,9.49,2.71,31.17-6.78,30.49-19.65S221,85.16,209.44,91.26Z"/><path class="cls-8" d="M371.15,144.23c-2-11.52-15.9-3.57-21,3.38-7.46,10.17,0,25.75,8.81,25.75S373.19,155.74,371.15,144.23Z"/><path class="cls-8" d="M344.73,185.56c-9.49,4.06-11.52,17.62-8.81,24.39s13.55,4.74,19-8.13S352.3,182.31,344.73,185.56Z"/><path class="cls-8" d="M319,164.55c-12.88,8.81-10.17,20.33-2.71,24.4s15.58-8.81,17.62-19.65S325.52,160.07,319,164.55Z"/><path class="cls-8" d="M321,217.4c-5.42-4.74-6.77-.67-11.52,10.85s9.49,15.58,16.94,8.13S326,221.8,321,217.4Z"/><path class="cls-8" d="M299.33,197.08c-10.17,3.38-8.81,14.9-4.06,21.14s12.87-2.17,14.22-11.66S307.07,194.5,299.33,197.08Z"/><path class="cls-8" d="M270.87,256.7c4.94,3.82,8.81,11.52-4.74,17.62s-21,6.78-23.72-4.06S256,245.19,270.87,256.7Z"/><path class="cls-8" d="M224.79,264.16c6.89,2.43,11.52,16.94-4.74,19.65s-24.39-4.07-19.65-12.88S213.28,260.09,224.79,264.16Z"/><path class="cls-8" d="M162.46,265.51c6-3.16,24.39-2.71,22.36,11.52s-14.23,10.17-25.07,7.46S148.23,273,162.46,265.51Z"/><path class="cls-8" d="M209.21,256.7c-7.29,3.13-23.72,4.07-17.62-7.45s23-18.29,25.41-9.15S214,254.67,209.21,256.7Z"/><path class="cls-8" d="M119.09,222.15c-9.48,5.42-7.66,10-3.39,20.32,8.13,19.65,27.78,8.14,25.75-4.06S128.58,216.73,119.09,222.15Z"/><path class="cls-8" d="M135.35,192.33c6.78-15.58-5.42-24.39-14.9-22.36s-16.38,24.74-14.23,31.17C111.64,217.4,128.58,207.92,135.35,192.33Z"/><path class="cls-8" d="M160.42,128.64c-7.45-4.06-21.64,10.76-27.1,21.68-7.45,14.91,16.94,16.94,24.39,9.49S167.88,132.71,160.42,128.64Z"/><path class="cls-8" d="M173.3,161.16c-8,5.32-16.26,6.78-8.81,16.27s10.16,12.87,19,3.38S191.59,149,173.3,161.16Z"/><path class="cls-8" d="M161.78,196.4c-6.18,3.71-14.23,6.1-6.1,16.94s21.68,6.77,23-2.71S171.94,190.3,161.78,196.4Z"/><path class="cls-8" d="M209.89,112.38c-5.38-1.54-12.2-12.2-.68-18.3s30.49-14.23,31.17-1.35S219.37,115.09,209.89,112.38Z"/><path class="cls-9" d="M371.15,144.23c-1.67-9.49-11.35-5.77-17.58-.29,5.54-3.1,11.55-3.61,12.84,3.67,1.46,8.3-1,19.74-5.71,25.5C368.46,171,373.05,155,371.15,144.23Z"/><path class="cls-9" d="M320.89,163.43c5.37-1.56,10.4-.27,8.93,7.56-1.34,7.17-5.36,15.19-10.08,18.66,6.35-.61,12.43-11.19,14.15-20.35C335.73,159.45,327.35,159.91,320.89,163.43Z"/><path class="cls-9" d="M299.33,197.08a11.49,11.49,0,0,0-4,2.35c.24-.09.4-.24.65-.32,7.74-2.58,11.52,0,10.16,9.49a20.34,20.34,0,0,1-5.7,11.59c4-1.09,8.16-7.1,9.09-13.63C310.85,197.08,307.07,194.5,299.33,197.08Z"/><path class="cls-9" d="M344.73,185.56c-.28.11-.48.31-.74.44,6.71-1.05,12.58,5.45,7.74,16.95-2.3,5.45-5.56,8.85-8.77,10.57,4.08-.71,8.86-4.41,11.93-11.7C360.31,189,352.3,182.31,344.73,185.56Z"/><path class="cls-9" d="M321,217.4c-2.22-1.94-3.75-2.33-5.12-1.4a10.89,10.89,0,0,1,2,1.4c5,4.4,12.87,11.52,5.42,19a12.85,12.85,0,0,1-7.46,3.63,12.76,12.76,0,0,0,10.62-3.63C333.89,228.92,326,221.8,321,217.4Z"/><path class="cls-9" d="M273.69,259.59c.39,3.43-1.76,7.29-9.26,10.67-11.3,5.08-18.31,6.29-21.91.3,2.78,10.48,10.2,9.79,23.61,3.76C276.82,269.51,276.66,263.71,273.69,259.59Z"/><path class="cls-9" d="M220.73,280.08c-12.86,2.14-20.52-1.68-20.86-7.72-3.13,8.08,4.83,14,20.18,11.45,8.35-1.39,11.17-5.89,11-10.27C229.81,276.52,226.67,279.09,220.73,280.08Z"/><path class="cls-9" d="M195.88,249c3.53-6.65,10.65-11.69,16.51-13-6.12-1-16.34,4.84-20.8,13.26s3.37,10.23,10.72,9.25C196.64,258.32,192.25,255.9,195.88,249Z"/><path class="cls-8" d="M162.46,265.51c6-3.16,24.39-2.71,22.36,11.52s-14.23,10.17-25.07,7.46S148.23,273,162.46,265.51Z"/><path class="cls-9" d="M164.49,283.81c-10.84-2.71-11.52-11.52,2.71-19a12,12,0,0,1,2.39-.89,17.82,17.82,0,0,0-7.13,1.56c-14.23,7.46-13.56,16.26-2.71,19,6.59,1.64,13.67,3.77,18.67,2C174.15,286.41,169.19,285,164.49,283.81Z"/><path class="cls-9" d="M119.54,242.47c-4.27-10.32-6.1-14.9,3.39-20.32a11.82,11.82,0,0,1,3.77-1.38,11.28,11.28,0,0,0-7.61,1.38c-9.48,5.42-7.66,10-3.39,20.32,3.63,8.77,9.55,11.31,14.82,10.38C126.4,252.17,122.31,249.15,119.54,242.47Z"/><path class="cls-9" d="M158.39,212.44c-8.13-10.85-.08-13.24,6.1-16.94a12.75,12.75,0,0,1,1.33-.67,12,12,0,0,0-4,1.57c-6.18,3.71-14.23,6.1-6.1,16.94,5,6.63,12,7.67,17,5.31C168,219.59,162.52,217.94,158.39,212.44Z"/><path class="cls-9" d="M109.83,202.72c-2.14-6.43,4.74-29.13,14.23-31.17a14,14,0,0,1,6.71.3A14.32,14.32,0,0,0,120.45,170c-9.49,2-16.38,24.74-14.23,31.17,1.73,5.2,4.64,7.74,8,8.32A13.42,13.42,0,0,1,109.83,202.72Z"/><path class="cls-9" d="M168.1,177.43c-7.45-9.49.84-11,8.81-16.27a20.41,20.41,0,0,1,7.26-3.28c-2.52-.69-6.08.09-10.87,3.28-8,5.32-16.26,6.78-8.81,16.27,5.12,6.51,8,10,12.19,8.59C174.11,185,171.64,181.93,168.1,177.43Z"/><path class="cls-9" d="M136.71,150.78c4.64-9.3,15.59-21.36,23.34-22.28-7.54-3.42-21.35,11.07-26.73,21.82-4.42,8.85,2.38,13.13,10.19,13.62C137.31,162.54,132.94,158.3,136.71,150.78Z"/><path class="cls-8" d="M269.51,86c-14.22-.67-11.33,4.91-12.87,12.2-2.71,12.87,29.14,11.52,39.3-.68S283.74,86.63,269.51,86Z"/><path class="cls-8" d="M327.11,96.12c-8.13,0-19.43,4.51-16.26,10.84,5.42,10.84,23.71,8.81,31.84,1.35S335.24,96.12,327.11,96.12Z"/><path class="cls-8" d="M209.21,94.08c-11.52,6.1-4.69,16.76.68,18.3,9.48,2.71,31.17-6.78,30.49-19.65S220.73,88,209.21,94.08Z"/><path class="cls-9" d="M208.31,97.47c11.52-6.1,30.49-14.23,31.17-1.35a11.42,11.42,0,0,1-.1,1.85,12,12,0,0,0,1-5.24c-.68-12.88-19.65-4.74-31.17,1.35-4.46,2.37-6.15,5.42-6.26,8.35A12.15,12.15,0,0,1,208.31,97.47Z"/><path class="cls-9" d="M269.51,86c-7.44-.35-10.18,1-11.34,3.44,1.71-1.1,4.56-1.64,9.54-1.4,13.9.66,35.48-.59,27,10.74.43-.42.88-.82,1.25-1.26C306.1,85.28,283.74,86.63,269.51,86Z"/><path class="cls-9" d="M327.11,96.12c-5.22,0-11.72,1.86-14.89,4.87a27.43,27.43,0,0,1,11.95-2.84c8.13,0,23.72,4.74,15.59,12.2-.27.24-.63.43-.92.66a19.87,19.87,0,0,0,3.85-2.7C350.82,100.86,335.24,96.12,327.11,96.12Z"/><path class="cls-7" d="M85.21,208.14s-5,43.37,28.91,66l82.22-53.31S122.25,264.16,114.57,266,85.66,245.64,85.21,208.14Z"/><path class="cls-7" d="M292.1,261.9s11.29,7.68-18.52,22.13c-28.19,13.67-89,28.91-138.68,6.33,0,0,32.53,12.19,75,7.68S292.55,276.35,292.1,261.9Z"/><path class="cls-7" d="M374.31,116.9s17.62,8.13,12.2,43.81-40.2,90.35-76.34,97.12c0,0,33.43-11.29,56.92-52.85S390.12,129.54,374.31,116.9Z"/><g class="cls-10"><path class="cls-11" d="M391.48,135C380.64,228,320.11,259.19,310.17,257.83S245.12,195,245.12,195s19-12.64,43.82-28.91S368.89,116,374.31,116.9s15.36,13.55,15.36,13.55C382,100.63,357.15,91.6,357.15,91.6c8.13,6.78,7.68,17.62-5.87,26.65S242,190.07,242,190.07s-30.72-47-44.72-69.11-10.39-32.07-10.39-32.07L175.1,96.57s60.54,92.15,61.44,95.76S114.12,274.1,114.12,274.1c-47-34.34-22.58-98.48-22.58-98.48-35.93,47.45-10.82,86.51,3.95,103.05l-3.5.39,6.1,16.27,8.86,1.34c5.25,3,16.58,9.35,34.5,18.31,25.75,12.87,159.91,16.94,222.93-56.24S391.48,135,391.48,135ZM289.16,275c-6.77,6.77-46.75,28.46-104.34,25.75-48.5-2.29-54.72-12.73-55.47-16,1-5.5,5-11.31,8.89-15.93,9.56-5.9,21.58-13.71,33-22.3,24.39-18.29,71.16-47.88,71.16-47.88s23,28.23,39.28,48.56S295.94,268.22,289.16,275Z"/></g><path class="cls-12" d="M194.54,175.75c5.28,6,20.93,8.57,30.31-6.68s10.5-30-14.15-35.5-27.34,1.37-28.85,12C180.24,157,187.07,167.33,194.54,175.75Z"/><path class="cls-13" d="M196.33,131.64a68.16,68.16,0,0,1,14.37,1.93c24.65,5.48,23.54,20.24,14.15,35.5-5.16,8.38-12.21,11.37-18.39,11.37-5.06,0-9.55-2-11.92-4.69-7.47-8.42-14.3-18.79-12.69-30.14,1.14-8.08,3-14,14.48-14m0-5.42c-17.21,0-18.93,12.12-19.85,18.63-2,14.47,7,26.62,14,34.5,3.56,4,9.68,6.51,16,6.51,9.17,0,17.55-5.09,23-14,6.83-11.11,8.65-20.63,5.41-28.3-3.17-7.48-10.91-12.64-23-15.33a73.12,73.12,0,0,0-15.54-2.06Z"/><g class="cls-14"><path class="cls-15" d="M181.54,157.12s6.58,8.67,14.44,9.39c0,0-.88,9.16,8.12,8.91,0,0,4.63,4.78,10.87-.18s4-6.49,4-6.49-2.18.89-5.19-2.26c0,0,6.65.31,8.26-5.37,0,0,3.33.57,5.19-4.22s-2-6.89-2-6.89-1.29,4.71-3.8,5c0,0,5.09-8-3.1-12.64a17.1,17.1,0,0,0-10.72-10.85s22.63,8.32,24.83,12.29,3.5,13.86,2.53,16-8.32,20.2-12.37,24.26-9.48,4.15-15.08,3.91-16.38-2.74-18.73-4.6S175.63,166.78,181.54,157.12Z"/></g><path class="cls-16" d="M215.82,145s4.61-7.39-5.45-9.64C210.37,135.36,215.89,139.89,215.82,145Z"/><path class="cls-16" d="M199.92,135.94s6.73,4.12,6.58,9.48C206.5,145.42,210,138.19,199.92,135.94Z"/><path class="cls-16" d="M195.3,139.27c-2.28-9.4-9.65-1-9.65-1C191.16,133.84,195.3,139.27,195.3,139.27Z"/><path class="cls-16" d="M211.69,150.11s4.71,5.35-.31,9.89C211.38,160,220.21,154.56,211.69,150.11Z"/><path class="cls-16" d="M220.29,155.94s7.78-6.34-2.12-9.89C218.17,146.05,223.53,150.26,220.29,155.94Z"/><path class="cls-16" d="M221.27,159.5c-.56,4.14-7.45,7-7.45,7C224.93,165.58,221.27,159.5,221.27,159.5Z"/><path class="cls-16" d="M208.47,168c-1.13,5-6.64,6.17-6.64,6.17C209.54,175.33,208.47,168,208.47,168Z"/><path class="cls-16" d="M200.28,164.15c-2.67,2.36-7.63-2.26-7.63-2.26C194.2,168.62,200.28,164.15,200.28,164.15Z"/><path class="cls-12" d="M268.6,127.71c-7.13,3.55-13.73,18-1.45,31s26.24,18,38-4.4,5.81-26.75-4.1-31C290.47,118.82,278.68,122.7,268.6,127.71Z"/><path class="cls-13" d="M290.92,121.34a25.36,25.36,0,0,1,10.09,2c9.91,4.24,15.82,8.62,4.1,31-5.82,11.1-12.19,15.48-18.63,15.48s-13.14-4.51-19.33-11.08c-12.28-13-5.68-27.46,1.45-31,6.95-3.45,14.72-6.37,22.32-6.37m0-5.42c-7.35,0-15.21,2.2-24.73,6.94-5.4,2.69-9.68,8.89-10.92,15.82-1.49,8.31,1.33,16.75,7.93,23.76,8,8.48,15.82,12.78,23.28,12.78,9.15,0,17-6.18,23.43-18.39,6.54-12.47,8.44-20.87,6.18-27.23s-7.84-9.07-12.94-11.25a30.76,30.76,0,0,0-12.23-2.43Z"/><g class="cls-17"><path class="cls-15" d="M290,120s-10.08,4.09-12.83,11.49c0,0-8.62-3.24-10.72,5.52,0,0-5.82,3.22-2.66,10.53s5.21,5.6,5.21,5.6-.29-2.34,3.54-4.42c0,0-2,6.34,3,9.37,0,0-1.41,3.07,2.72,6.11s7.19-.17,7.19-.17-4.21-2.47-3.79-5c0,0,6.42,7,13,.31a17.11,17.11,0,0,0,13.27-7.52S294,171.57,289.6,172.65s-14.29-.23-16.08-1.72-17.32-13.3-20.19-18.27-1.53-10.24.16-15.57,6.91-15.11,9.32-16.89S282.2,111.81,290,120Z"/></g><path class="cls-16" d="M292.74,156.28s5.93,6.38,10.73-2.74C303.47,153.54,297.65,157.69,292.74,156.28Z"/><path class="cls-16" d="M305.64,143.29s-5.74,5.43-10.87,3.88C294.77,147.17,300.83,152.41,305.64,143.29Z"/><path class="cls-16" d="M303.63,138c9.67.25,3.52-9.05,3.52-9.05C310,135.39,303.63,138,303.63,138Z"/><path class="cls-16" d="M288.88,151s-6.39,3.16-9.47-2.88C279.41,148.08,282.37,158,288.88,151Z"/><path class="cls-16" d="M281,157.75s4.09,9.16,10.1.53C291.11,158.28,285.65,162.35,281,157.75Z"/><path class="cls-16" d="M277.32,157.76c-3.85-1.62-4.8-9-4.8-9C270.5,159.71,277.32,157.76,277.32,157.76Z"/><path class="cls-16" d="M272.5,143.2c-4.56-2.4-4.23-8-4.23-8C265.1,142.3,272.5,143.2,272.5,143.2Z"/><path class="cls-16" d="M278.3,136.28c-1.57-3.19,4.18-6.77,4.18-6.77C275.58,129.25,278.3,136.28,278.3,136.28Z"/><path class="cls-12" d="M219.12,147c1.12,8.62,13.66,20.57,31.49,12.53s27.87-20.69,8.95-40.75S234,103.23,226.12,112C217.71,121.22,217.52,134.77,219.12,147Z"/><path class="cls-13" d="M238.12,104.54c5.09,0,11.6,3.78,21.44,14.2,18.92,20.06,8.87,32.71-8.95,40.75a28,28,0,0,1-11.51,2.66c-11.54,0-19.12-8.57-20-15.19-1.6-12.19-1.41-25.74,7-35,3.79-4.19,7.29-7.41,12-7.41m0-5.42c-7.09,0-12,4.74-16,9.19-10.58,11.67-9.84,28.05-8.36,39.35,1.25,9.58,11.3,19.91,25.36,19.91a33.44,33.44,0,0,0,13.74-3.14c12.82-5.78,20.2-13.15,21.93-21.9,1.69-8.53-2.1-17.79-11.27-27.51-10.37-11-18.2-15.9-25.38-15.9Z"/><g class="cls-18"><path class="cls-15" d="M218.78,122.16s.64,11.87,7.31,17.33c0,0-6.41,7.75,1.88,13,0,0,1.25,7.15,9.92,6.5s7.64-3.39,7.64-3.39-2.53-.53-3.31-5.23c0,0,5.82,4.36,10.75.22,0,0,2.66,2.54,7.27-.64s2.38-7.48,2.38-7.48-4,3.46-6.47,2.15c0,0,9.53-4.14,5-13.33a18.67,18.67,0,0,0-3-16.37s15.36,21.39,14.91,26.32-5.33,14.67-7.49,16-19.9,13.16-26.05,14.35-11.11-2.06-16-5.71-13.13-12.5-14.11-15.63S207.53,127.27,218.78,122.16Z"/></g><path class="cls-16" d="M257.19,132.21s8.69-3.85,1-12.05C258.18,120.16,260.39,127.64,257.19,132.21Z"/><path class="cls-16" d="M248.37,114.28s3.56,7.85.14,12.59C248.51,126.87,256.08,122.48,248.37,114.28Z"/><path class="cls-16" d="M242.16,114.46c3.69-9.9-8.09-6.85-8.09-6.85C241.74,107,242.16,114.46,242.16,114.46Z"/><path class="cls-16" d="M250.33,134.3s1,7.71-6.34,8.75C244,143.05,255.3,143.54,250.33,134.3Z"/><path class="cls-16" d="M254.53,144.83s10.91-1,4.14-10.23C258.67,134.6,260.94,141.68,254.53,144.83Z"/><path class="cls-16" d="M253.23,148.66c-3,3.39-11,1.74-11,1.74C252.81,156.39,253.23,148.66,253.23,148.66Z"/><path class="cls-16" d="M236.49,148.45c-4.1,3.85-9.78,1.51-9.78,1.51C232.93,155.77,236.49,148.45,236.49,148.45Z"/><path class="cls-16" d="M231.41,140c-3.86.49-5.5-6.72-5.5-6.72C223.18,140.31,231.41,140,231.41,140Z"/><circle class="cls-19" cx="266.37" cy="198.66" r="23.94"/><path class="cls-20" d="M266.37,174.72a23.94,23.94,0,1,1-23.94,23.94,23.94,23.94,0,0,1,23.94-23.94m0-5.42a29.36,29.36,0,1,0,29.36,29.36,29.39,29.39,0,0,0-29.36-29.36Z"/><path class="cls-21" d="M270.89,215.37a23.84,23.84,0,0,1-22.24-32.68,23.88,23.88,0,1,0,40,24.71A23.78,23.78,0,0,1,270.89,215.37Z"/><path class="cls-21" d="M270.89,184.2c4.94-1.06,14,7.23,7.22,9.49S264.56,185.56,270.89,184.2Z"/><path class="cls-22" d="M279.92,200.46c-3.27-.29-8.13,2.26-3.61,5.43S284.89,200.92,279.92,200.46Z"/><path class="cls-22" d="M265,203.63c-2.64-.76-4.51,2.26-1.35,4.06S268.18,204.53,265,203.63Z"/><path class="cls-22" d="M272.69,178.33s-12.64-2.26-20.78,6.78a3.9,3.9,0,0,0-.45,5.42C253.72,193.69,259.14,178.78,272.69,178.33Z"/><path class="cls-22" d="M246.49,194.14c-1.27,1-3.61,5.42-.45,6.78S248.75,192.33,246.49,194.14Z"/><circle class="cls-19" cx="223.46" cy="195.5" r="23.94"/><path class="cls-20" d="M223.44,171.55a23.95,23.95,0,0,1,0,47.89,23.95,23.95,0,1,1,0-47.89m0-5.42h0a29.36,29.36,0,0,0-7,57.87,29.59,29.59,0,0,0,7.06.86,29.37,29.37,0,0,0,0-58.73Z"/><path class="cls-21" d="M240.77,195.12a23.85,23.85,0,0,1-37.06,13.76A23.88,23.88,0,1,0,237.27,176,23.8,23.8,0,0,1,240.77,195.12Z"/><path class="cls-21" d="M210.5,187.65c.16-5.05,10.38-11.87,10.95-4.75S210.31,194.11,210.5,187.65Z"/><path class="cls-22" d="M228.46,182.77c-1.08,3.11.24,8.44,4.39,4.81S230.09,178.06,228.46,182.77Z"/><path class="cls-22" d="M228,198c-1.37,2.39,1.11,4.93,3.62,2.29S229.59,195.15,228,198Z"/><path class="cls-22" d="M205.24,184.49s-5.23,11.73,1.6,21.79A3.89,3.89,0,0,0,212,208C215.6,206.58,202.43,197.75,205.24,184.49Z"/><path class="cls-22" d="M214.31,213.71c.68,1.48,4.4,4.81,6.47,2.06S213.1,211.08,214.31,213.71Z"/><circle class="cls-19" cx="251.48" cy="166.79" r="23.94"/><path class="cls-20" d="M251.46,142.84a23.95,23.95,0,1,1-23.22,18.21,23.84,23.84,0,0,1,23.22-18.21m0-5.42h0a29.38,29.38,0,1,0,7.06.86,29.31,29.31,0,0,0-7.06-.86Z"/><path class="cls-21" d="M268.79,166.41a23.83,23.83,0,0,1-37.06,13.76,23.89,23.89,0,1,0,33.57-32.88A23.84,23.84,0,0,1,268.79,166.41Z"/><path class="cls-21" d="M238.53,158.94c.16-5.05,10.37-11.86,10.94-4.74S238.33,165.4,238.53,158.94Z"/><path class="cls-22" d="M256.48,154.07c-1.07,3.1.25,8.43,4.4,4.8S258.11,149.35,256.48,154.07Z"/><path class="cls-22" d="M256,169.3c-1.37,2.38,1.11,4.92,3.62,2.29S257.62,166.44,256,169.3Z"/><path class="cls-22" d="M233.26,155.78s-5.22,11.74,1.6,21.8a3.89,3.89,0,0,0,5.15,1.73C243.63,177.88,230.45,169,233.26,155.78Z"/><path class="cls-22" d="M242.33,185c.69,1.48,4.4,4.81,6.47,2.07S241.12,182.38,242.33,185Z"/><path class="cls-23" d="M216.12,228.76c-4.18-3.49-18.28-11.26-26.46-12.8s-13.64,5.46-19.39,14.3-11.74,17.09-9.72,23.85,14.37,11.28,25.34,14.29c12.75,3.49,16.25,4.5,20.34-1.62S223.36,234.8,216.12,228.76Z"/><path class="cls-24" d="M187.43,215.75a12.44,12.44,0,0,1,2.23.21c8.18,1.54,22.28,9.31,26.46,12.8,7.24,6-5.8,31.91-9.89,38-2.11,3.16-4.06,4.41-7.21,4.41-3,0-7-1.1-13.13-2.79-11-3-23.32-7.53-25.34-14.29s4-15,9.72-23.85c5.21-8,10.18-14.51,17.16-14.51m0-4.07c-9.16,0-15.19,8.09-20.57,16.37l-1.4,2.14c-5.76,8.78-11.2,17.07-8.8,25.09,2.1,7,10.78,12.28,28.15,17,6.57,1.8,10.75,2.94,14.21,2.94,4.51,0,7.67-1.86,10.59-6.22.22-.32,20.75-33.69,9.11-43.4-4.53-3.79-19.26-12-28.31-13.68a16.87,16.87,0,0,0-3-.28Z"/><g class="cls-25"><path class="cls-26" d="M189.66,216s-6.47.18-13.94,10.74-15.47,22.37-9.95,26.7,29.25,15.47,35.12,12.08l.66,7.65s-34.23-7.28-41.41-15.75-4-12.52-1.08-18.15S163.55,202.33,189.66,216Z"/></g><g class="cls-25"><path class="cls-27" d="M211.75,223.45s-9.92,16.88-6,31.32c0,0,4.66,6.91-6.22,11.1l.57,9.58s11-1.67,16.65-22.85,4.85-24,2.78-24.85S218,220.25,211.75,223.45Z"/></g><path class="cls-26" d="M187.33,220.25c-2.41.39-8.76,5.83-6.89,9.21S191.69,219.53,187.33,220.25Z"/><path class="cls-26" d="M174.66,236.94c-3.46.72-7.65,6.67-5.78,10.05S178.71,236.09,174.66,236.94Z"/><path class="cls-23" d="M221.81,228.37c5.34-1,21.44-.9,29.34,1.75s9.23,11.43,9.93,21.95,1.89,20.65-3.17,25.56-18,2.83-29.08.09c-12.84-3.18-16.38-4-17-11.34S212.53,230.11,221.81,228.37Z"/><path class="cls-24" d="M231.07,227.78c6.77,0,15.07.66,20.08,2.34,7.89,2.66,9.23,11.43,9.93,21.95s1.89,20.65-3.17,25.56c-2.22,2.15-6,3-10.38,3-5.68,0-12.5-1.33-18.7-2.87-12.84-3.18-16.38-4-17-11.34s.67-36.27,9.95-38a56.79,56.79,0,0,1,9.26-.59m0-4.07h0a60.61,60.61,0,0,0-10,.66c-14.89,2.8-13.27,41.94-13.24,42.33.81,10.2,6.76,11.67,19.79,14.9,8.37,2.08,14.81,3.06,19.93,3.06,6,0,10.36-1.35,13.21-4.11,6-5.83,5.31-15.72,4.57-26.19l-.17-2.56c-.58-8.66-1.45-21.75-12.7-25.53-7-2.37-18.14-2.56-21.37-2.56Z"/><g class="cls-28"><path class="cls-26" d="M251.15,230.12s5.55,3.32,6.91,16.18,2.57,27.08-4.36,28.16-33.56-.58-37-6.4l-3.82,6.14s33.42,10.37,43.83,6.48,9.58-9,9.8-15.31S280.58,231,251.15,230.12Z"/></g><g class="cls-28"><path class="cls-27" d="M240.56,227.18s-18.13-1.43-21.35,4.38c0,0-9.34,34.32-.47,38.12L213,277s-8.81-6.84-3.38-28.07,7.47-23.28,9.72-23S236.64,221.31,240.56,227.18Z"/></g><path class="cls-26" d="M251.08,235c1.91,1.52,4.8,9.37,1.52,11.4S247.63,232.25,251.08,235Z"/><path class="cls-26" d="M254,255.75c2.67,2.32,3.41,9.56.13,11.6S250.87,253,254,255.75Z"/><path class="cls-29" d="M249.19,416C132.11,416,36.47,356,30,280.43c-.23,2.7-.37,5.4-.37,8.13,0,79.34,98.29,143.65,219.54,143.65S468.72,367.9,468.72,288.56c0-2.73-.14-5.43-.37-8.13C461.91,356,366.26,416,249.19,416Z"/></svg>